<svg width="28" height="30" viewBox="0 0 28 30" fill="none" xmlns="http://www.w3.org/2000/svg">
<g filter="url(#filter0_d_3_404)">
<path d="M7 12C7 11.7348 6.89464 11.4804 6.70711 11.2929C6.51957 11.1054 6.26522 11 6 11H5C4.73478 11 4.48043 11.1054 4.29289 11.2929C4.10536 11.4804 4 11.7348 4 12C4 12.2652 4.10536 12.5196 4.29289 12.7071C4.48043 12.8946 4.73478 13 5 13H6C6.26522 13 6.51957 12.8946 6.70711 12.7071C6.89464 12.5196 7 12.2652 7 12ZM7.64 17L6.93 17.71C6.74375 17.8974 6.63921 18.1508 6.63921 18.415C6.63921 18.6792 6.74375 18.9326 6.93 19.12C7.11736 19.3063 7.37081 19.4108 7.635 19.4108C7.89919 19.4108 8.15264 19.3063 8.34 19.12L9.05 18.41C9.21383 18.2187 9.29943 17.9726 9.28971 17.7209C9.27999 17.4693 9.17566 17.2305 8.99756 17.0524C8.81947 16.8743 8.58073 16.77 8.32905 16.7603C8.07738 16.7506 7.8313 16.8362 7.64 17ZM14 5C14.2652 5 14.5196 4.89464 14.7071 4.70711C14.8946 4.51957 15 4.26522 15 4V3C15 2.73478 14.8946 2.48043 14.7071 2.29289C14.5196 2.10536 14.2652 2 14 2C13.7348 2 13.4804 2.10536 13.2929 2.29289C13.1054 2.48043 13 2.73478 13 3V4C13 4.26522 13.1054 4.51957 13.2929 4.70711C13.4804 4.89464 13.7348 5 14 5ZM19.66 7.34C19.9223 7.3389 20.1737 7.23474 20.36 7.05L21.07 6.34C21.1747 6.25035 21.2597 6.14004 21.3197 6.01597C21.3797 5.89191 21.4135 5.75677 21.4188 5.61905C21.4241 5.48133 21.4009 5.344 21.3506 5.21568C21.3004 5.08735 21.2241 4.9708 21.1266 4.87335C21.0292 4.77589 20.9126 4.69964 20.7843 4.64936C20.656 4.59909 20.5187 4.57588 20.3809 4.5812C20.2432 4.58652 20.1081 4.62025 19.984 4.68027C19.86 4.7403 19.7496 4.82532 19.66 4.93L19 5.64C18.8137 5.82736 18.7092 6.08081 18.7092 6.345C18.7092 6.60919 18.8137 6.86264 19 7.05C19.1763 7.22536 19.4116 7.32875 19.66 7.34ZM7.66 7.05C7.84626 7.23474 8.09766 7.3389 8.36 7.34C8.49161 7.34076 8.62207 7.31554 8.74391 7.26577C8.86574 7.21601 8.97656 7.14268 9.07 7.05C9.25625 6.86264 9.36079 6.60919 9.36079 6.345C9.36079 6.08081 9.25625 5.82736 9.07 5.64L8.36 4.93C8.26742 4.8361 8.15725 4.76136 8.03578 4.71005C7.91432 4.65873 7.78393 4.63184 7.65207 4.63091C7.52021 4.62998 7.38946 4.65503 7.26728 4.70463C7.14511 4.75424 7.0339 4.82742 6.94 4.92C6.8461 5.01258 6.77136 5.12275 6.72005 5.24422C6.66873 5.36568 6.64184 5.49607 6.64091 5.62793C6.63903 5.89423 6.74302 6.15037 6.93 6.34L7.66 7.05ZM23 11H22C21.7348 11 21.4804 11.1054 21.2929 11.2929C21.1054 11.4804 21 11.7348 21 12C21 12.2652 21.1054 12.5196 21.2929 12.7071C21.4804 12.8946 21.7348 13 22 13H23C23.2652 13 23.5196 12.8946 23.7071 12.7071C23.8946 12.5196 24 12.2652 24 12C24 11.7348 23.8946 11.4804 23.7071 11.2929C23.5196 11.1054 23.2652 11 23 11ZM20.36 17C20.17 16.8943 19.9508 16.8534 19.7355 16.8835C19.5202 16.9136 19.3205 17.0131 19.1668 17.1668C19.0131 17.3205 18.9136 17.5202 18.8835 17.7355C18.8534 17.9508 18.8943 18.17 19 18.36L19.71 19.07C19.8974 19.2563 20.1508 19.3608 20.415 19.3608C20.6792 19.3608 20.9326 19.2563 21.12 19.07C21.3063 18.8826 21.4108 18.6292 21.4108 18.365C21.4108 18.1008 21.3063 17.8474 21.12 17.66L20.36 17ZM14 6.5C12.9122 6.5 11.8488 6.82257 10.9444 7.42692C10.0399 8.03126 9.33494 8.89025 8.91866 9.89524C8.50238 10.9002 8.39346 12.0061 8.60568 13.073C8.8179 14.1399 9.34172 15.1199 10.1109 15.8891C10.8801 16.6583 11.8601 17.1821 12.927 17.3943C13.9939 17.6065 15.0998 17.4976 16.1048 17.0813C17.1098 16.6651 17.9687 15.9601 18.5731 15.0556C19.1774 14.1512 19.5 13.0878 19.5 12C19.4974 10.5421 18.917 9.14471 17.8862 8.11383C16.8553 7.08295 15.4579 6.50264 14 6.5ZM14 15.5C13.3078 15.5 12.6311 15.2947 12.0555 14.9101C11.4799 14.5256 11.0313 13.9789 10.7664 13.3394C10.5015 12.6999 10.4322 11.9961 10.5673 11.3172C10.7023 10.6383 11.0356 10.0146 11.5251 9.52513C12.0146 9.03564 12.6383 8.7023 13.3172 8.56725C13.9961 8.4322 14.6999 8.50151 15.3394 8.76642C15.9789 9.03133 16.5256 9.47993 16.9101 10.0555C17.2947 10.6311 17.5 11.3078 17.5 12C17.5 12.9283 17.1313 13.8185 16.4749 14.4749C15.8185 15.1313 14.9283 15.5 14 15.5ZM14 19C13.7348 19 13.4804 19.1054 13.2929 19.2929C13.1054 19.4804 13 19.7348 13 20V21C13 21.2652 13.1054 21.5196 13.2929 21.7071C13.4804 21.8946 13.7348 22 14 22C14.2652 22 14.5196 21.8946 14.7071 21.7071C14.8946 21.5196 15 21.2652 15 21V20C15 19.7348 14.8946 19.4804 14.7071 19.2929C14.5196 19.1054 14.2652 19 14 19Z" fill="#FF452B"/>
</g>
<defs>
<filter id="filter0_d_3_404" x="-2" y="0" width="32" height="32" filterUnits="userSpaceOnUse" color-interpolation-filters="sRGB">
<feFlood flood-opacity="0" result="BackgroundImageFix"/>
<feColorMatrix in="SourceAlpha" type="matrix" values="0 0 0 0 0 0 0 0 0 0 0 0 0 0 0 0 0 0 127 0" result="hardAlpha"/>
<feOffset dy="4"/>
<feGaussianBlur stdDeviation="2"/>
<feComposite in2="hardAlpha" operator="out"/>
<feColorMatrix type="matrix" values="0 0 0 0 0 0 0 0 0 0 0 0 0 0 0 0 0 0 0.25 0"/>
<feBlend mode="normal" in2="BackgroundImageFix" result="effect1_dropShadow_3_404"/>
<feBlend mode="normal" in="SourceGraphic" in2="effect1_dropShadow_3_404" result="shape"/>
</filter>
</defs>
</svg>
